<?xml version="1.0" encoding="utf-8"?>
<svg version="1.1" xmlns:xlink="http://www.w3.org/1999/xlink" width="15px" height="15px" viewBox="390 503.5  15 15" xmlns="http://www.w3.org/2000/svg">
  <path d="M 390.5 506.5  A 2.5 2.5 0 0 1 393 504 L 402 504  A 2.5 2.5 0 0 1 404.5 506.5 L 404.5 515.5  A 2.5 2.5 0 0 1 402 518 L 393 518  A 2.5 2.5 0 0 1 390.5 515.5 L 390.5 506.5  Z " fill-rule="nonzero" fill="#f0f0f0" stroke="none" />
  <path d="M 390.5 506.5  A 2.5 2.5 0 0 1 393 504 L 402 504  A 2.5 2.5 0 0 1 404.5 506.5 L 404.5 515.5  A 2.5 2.5 0 0 1 402 518 L 393 518  A 2.5 2.5 0 0 1 390.5 515.5 L 390.5 506.5  Z " stroke-width="1" stroke="#797979" fill="none" />
  <path d="M 393.214285714286 511  L 396.428571428571 514.214285714286  " stroke-width="3.21428571428571" stroke="#797979" fill="none" />
  <path d="M 396.428571428571 514.214285714286  L 401.785714285714 506.714285714286  " stroke-width="3.21428571428571" stroke="#797979" fill="none" />
</svg>