<?xml version="1.0" encoding="utf-8"?>
<svg version="1.1" xmlns:xlink="http://www.w3.org/1999/xlink" width="35px" height="37px" xmlns="http://www.w3.org/2000/svg">
  <g transform="matrix(1 0 0 1 -67 -36 )">
    <path d="M 34.2272418478261 14.8308729139923  C 34.7424139492754 15.4245827984596  35 16.1409927257167  35 16.9801026957638  L 35 20.0198973042362  C 35 20.8590072742833  34.7424139492754 21.5754172015404  34.2272418478261 22.1691270860077  C 33.7120697463768 22.762836970475  33.0423460144928 23.0596919127086  32.2180706521739 23  L 15.4789402173913 23  L 22.445652173913 30.0417201540436  C 23.0480072463768 30.6116816431322  23.3491847826087 31.3241335044929  23.3491847826087 32.1790757381258  C 23.3491847826087 33.0340179717587  23.0480072463768 33.7464698331194  22.445652173913 34.316431322208  L 20.6623641304348 36.1213093709884  C 20.0758605072464 36.7071031236628  19.3625452898551 37  18.5224184782609 37  C 17.698143115942 37  16.976902173913 36.7071031236628  16.3586956521739 36.1213093709884  L 0.879755434782609 20.6373555840822  C 0.293251811594203 20.0515618314078  0 19.3391099700471  0 18.5  C 0 17.6767222935387  0.293251811594203 16.9563543003851  0.879755434782609 16.3388960205392  L 16.3586956521739 0.902439024390245  C 16.9610507246377 0.300813008130079  17.6822916666667 0  18.5224184782609 0  C 19.3466938405797 0  20.060009057971 0.300813008130079  20.6623641304348 0.902439024390245  L 22.445652173913 2.65982028241335  C 23.0480072463768 3.26144629867351  23.3491847826087 3.98181429182712  23.3491847826087 4.8209242618742  C 23.3491847826087 5.66003423192126  23.0480072463768 6.38040222507488  22.445652173913 6.98202824133505  L 15.4789402173913 14  L 32.2180706521739 14  C 33.0423460144928 13.9403080872914  33.7120697463768 14.237163029525  34.2272418478261 14.8308729139923  Z " fill-rule="nonzero" fill="#aaaaaa" stroke="none" transform="matrix(1 0 0 1 67 36 )" />
  </g>
</svg>