<?xml version="1.0" encoding="utf-8"?>
<svg version="1.1" xmlns:xlink="http://www.w3.org/1999/xlink" width="35px" height="29px" xmlns="http://www.w3.org/2000/svg">
  <g transform="matrix(1 0 0 1 -933 -92 )">
    <path d="M 14.2410714285714 26.519140625  C 14.2261904761905 26.6022135416667  14.2410714285714 26.7041666666667  14.2857142857143 26.825  C 14.2857142857143 26.8854166666667  14.2931547619048 27.0364583333333  14.3080357142857 27.278125  C 14.3229166666667 27.5197916666667  14.3266369047619 27.719921875  14.3191964285714 27.878515625  C 14.311755952381 28.037109375  14.2894345238095 28.2145833333333  14.2522321428571 28.4109375  C 14.2150297619048 28.6072916666667  14.140625 28.7545572916667  14.0290178571429 28.852734375  C 13.9174107142857 28.9509114583333  13.764880952381 29  13.5714285714286 29  L 6.42857142857143 29  C 4.6577380952381 29  3.14360119047619 28.3618489583333  1.88616071428571 27.085546875  C 0.628720238095238 25.8092447916667  0 24.2723958333333  0 22.475  L 0 6.525  C 0 4.72760416666666  0.628720238095238 3.19075520833333  1.88616071428571 1.914453125  C 3.14360119047619 0.638151041666663  4.6577380952381 0  6.42857142857143 0  L 13.5714285714286 0  C 13.764880952381 0  13.9322916666667 0.0717447916666626  14.0736607142857 0.215234375000001  C 14.2150297619048 0.358723958333332  14.2857142857143 0.528645833333332  14.2857142857143 0.725000000000001  C 14.2857142857143 0.785416666666664  14.2931547619048 0.936458333333332  14.3080357142857 1.178125  C 14.3229166666667 1.41979166666666  14.3266369047619 1.619921875  14.3191964285714 1.778515625  C 14.311755952381 1.937109375  14.2894345238095 2.11458333333333  14.2522321428571 2.3109375  C 14.2150297619048 2.50729166666666  14.140625 2.65455729166666  14.0290178571429 2.752734375  C 13.9174107142857 2.85091145833333  13.764880952381 2.9  13.5714285714286 2.9  L 6.42857142857143 2.9  C 5.44642857142857 2.9  4.60565476190476 3.25494791666666  3.90625 3.96484375  C 3.20684523809524 4.67473958333333  2.85714285714286 5.528125  3 6.525  L 3 22.475  C 2.85714285714286 23.471875  3.20684523809524 24.3252604166667  3.90625 25.03515625  C 4.60565476190476 25.7450520833333  5.44642857142857 26.1  6.42857142857143 26.1  L 12.8571428571429 26.1  L 13.1026785714286 26.1  L 13.3928571428571 26.1  C 13.3928571428571 26.1  13.4784226190476 26.1075520833333  13.6495535714286 26.12265625  C 13.8206845238095 26.1377604166667  13.90625 26.1604166666667  13.90625 26.190625  C 13.90625 26.2208333333333  13.9657738095238 26.2623697916667  14.0848214285714 26.315234375  C 14.203869047619 26.3680989583333  14.2559523809524 26.4360677083333  14.2410714285714 26.519140625  Z M 34.5758928571429 13.48046875  C 34.858630952381 13.7674479166667  35 14.1072916666667  35 14.5  C 35 14.8927083333333  34.858630952381 15.2325520833333  34.5758928571429 15.51953125  L 22.4330357142857 27.84453125  C 22.1502976190476 28.1315104166667  21.8154761904762 28.275  21.4285714285714 28.275  C 21.0416666666667 28.275  20.7068452380952 28.1315104166667  20.4241071428571 27.84453125  C 20.1413690476191 27.5575520833333  20 27.2177083333333  20 26.825  L 20 20  L 10 20  C 9.61309523809524 20.3  9.27827380952381 20.1565104166667  8.99553571428572 19.86953125  C 8.71279761904762 19.5825520833333  8.57142857142857 19.2427083333333  8.57142857142857 18.85  L 8.57142857142857 10.15  C 8.57142857142857 9.75729166666666  8.71279761904762 9.41744791666666  8.99553571428572 9.13046875  C 9.27827380952381 8.84348958333333  9.61309523809524 8.7  10 9  L 20 9  L 20 2.175  C 20 1.78229166666666  20.1413690476191 1.44244791666666  20.4241071428571 1.15546875  C 20.7068452380952 0.868489583333332  21.0416666666667 0.725000000000001  21.4285714285714 0.725000000000001  C 21.8154761904762 0.725000000000001  22.1502976190476 0.868489583333332  22.4330357142857 1.15546875  L 34.5758928571429 13.48046875  Z " fill-rule="nonzero" fill="#aaaaaa" stroke="none" transform="matrix(1 0 0 1 933 92 )" />
  </g>
</svg>