<?xml version="1.0" encoding="utf-8"?>
<svg version="1.1" xmlns:xlink="http://www.w3.org/1999/xlink" width="22px" height="19px" xmlns="http://www.w3.org/2000/svg">
  <g transform="matrix(1 0 0 1 -34 -9 )">
    <path d="M 7.95913461538462 16.0582386363636  C 8.29407051282051 16.4000946969697  8.46153846153846 16.8049242424242  8.46153846153846 17.2727272727273  C 8.46153846153846 17.7405303030303  8.29407051282051 18.1453598484849  7.95913461538462 18.4872159090909  C 7.62419871794872 18.829071969697  7.2275641025641 19  6.76923076923077 19  C 6.31089743589744 19  5.91426282051282 18.829071969697  5.57932692307692 18.4872159090909  C 5.24439102564103 18.1453598484849  5.07692307692308 17.7405303030303  5.07692307692308 17.2727272727273  C 5.07692307692308 16.8049242424242  5.24439102564103 16.4000946969697  5.57932692307692 16.0582386363636  C 5.91426282051282 15.7163825757576  6.31089743589744 15.5454545454545  6.76923076923077 15.5454545454545  C 7.2275641025641 15.5454545454545  7.62419871794872 15.7163825757576  7.95913461538462 16.0582386363636  Z M 19.8052884615385 16.0582386363636  C 20.1402243589744 16.4000946969697  20.3076923076923 16.8049242424242  20.3076923076923 17.2727272727273  C 20.3076923076923 17.7405303030303  20.1402243589744 18.1453598484849  19.8052884615385 18.4872159090909  C 19.4703525641026 18.829071969697  19.0737179487179 19  18.6153846153846 19  C 18.1570512820513 19  17.7604166666667 18.829071969697  17.4254807692308 18.4872159090909  C 17.0905448717949 18.1453598484849  16.9230769230769 17.7405303030303  16.9230769230769 17.2727272727273  C 16.9230769230769 16.8049242424242  17.0905448717949 16.4000946969697  17.4254807692308 16.0582386363636  C 17.7604166666667 15.7163825757576  18.1570512820513 15.5454545454545  18.6153846153846 15.5454545454545  C 19.0737179487179 15.5454545454545  19.4703525641026 15.7163825757576  19.8052884615385 16.0582386363636  Z M 21.7487980769231 1.98366477272727  C 21.916266025641 2.1545928030303  22 2.35700757575757  22 2.59090909090909  L 22 9.5  C 22 9.71590909090909  21.9272836538462 9.90707859848485  21.7818509615385 10.0735085227273  C 21.6364182692308 10.2399384469697  21.4579326923077 10.3366477272727  21.2463942307692 10.3636363636364  L 7.44350961538462 12.0099431818182  C 7.55809294871795 12.5497159090909  7.61538461538462 12.8645833333333  7.61538461538462 12.9545454545455  C 7.61538461538462 13.0984848484848  7.50961538461539 13.3863636363636  7.29807692307692 13.8181818181818  L 19.4615384615385 13.8181818181818  C 19.6907051282051 13.8181818181818  19.8890224358974 13.9036458333333  20.0564903846154 14.0745738636364  C 20.2239583333333 14.2455018939394  20.3076923076923 14.4479166666667  20.3076923076923 14.6818181818182  C 20.3076923076923 14.9157196969697  20.2239583333333 15.118134469697  20.0564903846154 15.2890625  C 19.8890224358974 15.459990530303  19.6907051282051 15.5454545454545  19.4615384615385 15.5454545454545  L 5.92307692307692 15.5454545454545  C 5.69391025641026 15.5454545454545  5.49559294871795 15.459990530303  5.328125 15.2890625  C 5.16065705128205 15.118134469697  5.07692307692308 14.9157196969697  5.07692307692308 14.6818181818182  C 5.07692307692308 14.5828598484848  5.11217948717949 14.4411695075758  5.18269230769231 14.2567471590909  C 5.25320512820513 14.0723248106061  5.32371794871795 13.9103929924242  5.39423076923077 13.7709517045455  C 5.46474358974359 13.6315104166667  5.55949519230769 13.4515861742424  5.67848557692308 13.2311789772727  C 5.79747596153846 13.010771780303  5.86578525641026 12.8780776515152  5.88341346153846 12.8330965909091  L 3.54326923076923 1.72727272727273  L 0.846153846153846 1.72727272727273  C 0.61698717948718 1.72727272727273  0.418669871794872 1.64180871212121  0.251201923076923 1.47088068181818  C 0.0837339743589744 1.29995265151515  0 1.09753787878788  0 0.863636363636363  C 0 0.629734848484847  0.0837339743589744 0.427320075757573  0.251201923076923 0.256392045454546  C 0.418669871794872 0.0854640151515134  0.61698717948718 0  0.846153846153846 0  L 4.23076923076923 0  C 4.37179487179487 0  4.49739583333333 0.0292376893939381  4.60757211538462 0.0877130681818186  C 4.7177483974359 0.146188446969697  4.8036858974359 0.215909090909091  4.86538461538462 0.296875  C 4.92708333333333 0.377840909090909  4.984375 0.488044507575755  5.03725961538462 0.627485795454546  C 5.09014423076923 0.766927083333332  5.12540064102564 0.883877840909091  5.14302884615385 0.978338068181819  C 5.16065705128205 1.07279829545455  5.18489583333333 1.20549242424242  5.21574519230769 1.37642045454545  C 5.24659455128205 1.54734848484848  5.26642628205128 1.66429924242424  5.27524038461539 2  L 21.1538461538462 2  C 21.3830128205128 1.72727272727273  21.5813301282051 1.81273674242424  21.7487980769231 1.98366477272727  Z " fill-rule="nonzero" fill="#f2f2f2" stroke="none" transform="matrix(1 0 0 1 34 9 )" />
  </g>
</svg>