<?xml version="1.0" encoding="utf-8"?>
<svg version="1.1" xmlns:xlink="http://www.w3.org/1999/xlink" width="35px" height="31px" xmlns="http://www.w3.org/2000/svg">
  <g transform="matrix(1 0 0 1 -84 -49 )">
    <path d="M 21.1388221153846 15.1165364583333  C 21.4052483974359 14.8608940972222  21.5384615384615 14.5581597222222  21.5384615384615 14.2083333333333  C 21.5384615384615 13.8585069444444  21.4052483974359 13.5557725694444  21.1388221153846 13.3001302083333  C 20.8723958333333 13.0444878472222  20.556891025641 12.9166666666667  20.1923076923077 12.9166666666667  L 14.8076923076923 12.9166666666667  C 14.443108974359 12.9166666666667  14.1276041666667 13.0444878472222  13.8611778846154 13.3001302083333  C 13.5947516025641 13.5557725694444  13.4615384615385 13.8585069444444  13.4615384615385 14.2083333333333  C 13.4615384615385 14.5581597222222  13.5947516025641 14.8608940972222  13.8611778846154 15.1165364583333  C 14.1276041666667 15.3721788194444  14.443108974359 15.5  14.8076923076923 15.5  L 20.1923076923077 15.5  C 20.556891025641 15.5  20.8723958333333 15.3721788194444  21.1388221153846 15.1165364583333  Z M 33.2542067307692 9.42513020833333  C 33.5206330128205 9.68077256944444  33.6538461538462 9.98350694444444  33 10.3333333333333  L 33 29.7083333333333  C 33.6538461538462 30.0581597222222  33.5206330128205 30.3608940972222  33.2542067307692 30.6165364583333  C 32.9877804487179 30.8721788194444  32.6722756410256 31  32.3076923076923 31  L 2.69230769230769 31  C 2.32772435897436 31  2.01221955128205 30.8721788194444  1.74579326923077 30.6165364583333  C 1.47936698717949 30.3608940972222  1.34615384615385 30.0581597222222  2 29.7083333333333  L 2 10.3333333333333  C 1.34615384615385 9.98350694444444  1.47936698717949 9.68077256944444  1.74579326923077 9.42513020833333  C 2.01221955128205 9.16948784722222  2.32772435897436 9.04166666666667  2.69230769230769 9  L 32.3076923076923 9  C 32.6722756410256 9.04166666666667  32.9877804487179 9.16948784722222  33.2542067307692 9.42513020833333  Z M 34.6003605769231 0.383463541666666  C 34.8667868589744 0.639105902777774  35 0.941840277777774  35 1.29166666666667  L 35 6.45833333333333  C 35 6.80815972222222  34.8667868589744 7.11089409722222  34.6003605769231 7.36653645833333  C 34.3339342948718 7.62217881944444  34.0184294871795 7.75  33.6538461538462 8  L 1.34615384615385 8  C 0.981570512820513 7.75  0.666065705128206 7.62217881944444  0.399639423076923 7.36653645833333  C 0.133213141025641 7.11089409722222  0 6.80815972222222  0 6.45833333333333  L 0 1.29166666666667  C 0 0.941840277777774  0.133213141025641 0.639105902777774  0.399639423076923 0.383463541666666  C 0.666065705128206 0.127821180555554  0.981570512820513 0  1.34615384615385 0  L 33.6538461538462 0  C 34.0184294871795 0  34.3339342948718 0.127821180555554  34.6003605769231 0.383463541666666  Z " fill-rule="nonzero" fill="#aaaaaa" stroke="none" transform="matrix(1 0 0 1 84 49 )" />
  </g>
</svg>