<?xml version="1.0" encoding="utf-8"?>
<svg version="1.1" xmlns:xlink="http://www.w3.org/1999/xlink" width="23px" height="26px" xmlns="http://www.w3.org/2000/svg">
  <g transform="matrix(1 0 0 1 -33 -6 )">
    <path d="M 8.21661931818182 21.5143229166667  C 8.31463068181818 21.4127604166667  8.36363636363636 21.2829861111111  8.36363636363636 21.125  L 8.36363636363636 9.20833333333333  C 8.36363636363636 9.05034722222222  8.31463068181818 8.92057291666667  8.21661931818182 8.81901041666667  C 8.11860795454546 8.71744791666667  7.99337121212121 8.66666666666667  7.84090909090909 8.66666666666667  L 6.79545454545455 8.66666666666667  C 6.64299242424243 8.66666666666667  6.51775568181818 8.71744791666667  6.41974431818182 8.81901041666667  C 6.32173295454545 8.92057291666667  6.27272727272727 9.05034722222222  6.27272727272727 9.20833333333333  L 6.27272727272727 21.125  C 6.27272727272727 21.2829861111111  6.32173295454545 21.4127604166667  6.41974431818182 21.5143229166667  C 6.51775568181818 21.6158854166667  6.64299242424243 21.6666666666667  6.79545454545455 21.6666666666667  L 7.84090909090909 21.6666666666667  C 7.99337121212121 21.6666666666667  8.11860795454546 21.6158854166667  8.21661931818182 21.5143229166667  Z M 12.3984375 21.5143229166667  C 12.4964488636364 21.4127604166667  12.5454545454545 21.2829861111111  12.5454545454545 21.125  L 12.5454545454545 9.20833333333333  C 12.5454545454545 9.05034722222222  12.4964488636364 8.92057291666667  12.3984375 8.81901041666667  C 12.3004261363636 8.71744791666667  12.1751893939394 8.66666666666667  12.0227272727273 8.66666666666667  L 10.9772727272727 8.66666666666667  C 10.8248106060606 8.66666666666667  10.6995738636364 8.71744791666667  10.6015625 8.81901041666667  C 10.5035511363636 8.92057291666667  10.4545454545455 9.05034722222222  10.4545454545455 9.20833333333333  L 10.4545454545455 21.125  C 10.4545454545455 21.2829861111111  10.5035511363636 21.4127604166667  10.6015625 21.5143229166667  C 10.6995738636364 21.6158854166667  10.8248106060606 21.6666666666667  10.9772727272727 21.6666666666667  L 12.0227272727273 21.6666666666667  C 12.1751893939394 21.6666666666667  12.3004261363636 21.6158854166667  12.3984375 21.5143229166667  Z M 16.5802556818182 21.5143229166667  C 16.6782670454545 21.4127604166667  16.7272727272727 21.2829861111111  16.7272727272727 21.125  L 16.7272727272727 9.20833333333333  C 16.7272727272727 9.05034722222222  16.6782670454545 8.92057291666667  16.5802556818182 8.81901041666667  C 16.4822443181818 8.71744791666667  16.3570075757576 8.66666666666667  16.2045454545455 8.66666666666667  L 15.1590909090909 8.66666666666667  C 15.0066287878788 8.66666666666667  14.8813920454545 8.71744791666667  14.7833806818182 8.81901041666667  C 14.6853693181818 8.92057291666667  14.6363636363636 9.05034722222222  14.6363636363636 9.20833333333333  L 14.6363636363636 21.125  C 14.6363636363636 21.2829861111111  14.6853693181818 21.4127604166667  14.7833806818182 21.5143229166667  C 14.8813920454545 21.6158854166667  15.0066287878788 21.6666666666667  15.1590909090909 21.6666666666667  L 16.2045454545455 21.6666666666667  C 16.3570075757576 21.6666666666667  16.4822443181818 21.6158854166667  16.5802556818182 21.5143229166667  Z M 8.64133522727273 2.35286458333333  L 7.84090909090909 4.33333333333333  L 15.1590909090909 4.33333333333333  L 14.375 2.35286458333333  C 14.2987689393939 2.25130208333333  14.2062026515152 2.18923611111111  14.0973011363636 2.16666666666667  L 8.91903409090909 2.16666666666667  C 8.81013257575758 2.18923611111111  8.71756628787879 2.25130208333333  8.64133522727273 2.35286458333333  Z M 22.8529829545455 4.48567708333333  C 22.9509943181818 4.58723958333333  23 4.71701388888889  23 4.875  L 23 5.95833333333333  C 23 6.11631944444444  22.9509943181818 6.24609375  22.8529829545455 6.34765625  C 22.7549715909091 6.44921875  22.6297348484849 6.5  22.4772727272727 6.5  L 21 6.5  L 21 22.546875  C 20.9090909090909 23.4835069444444  20.6531723484849 24.2931857638889  20.1413352272727 24.9759114583333  C 19.6294981060606 25.6586371527778  19.0142045454545 26  18.2954545454545 26  L 4.70454545454546 26  C 3.98579545454546 26  3.37050189393939 25.669921875  2.85866477272727 25.009765625  C 2.34682765151515 24.349609375  2.09090909090909 23.5512152777778  2 22.6145833333333  L 2 6.5  L 0.522727272727273 6.5  C 0.370265151515151 6.5  0.245028409090909 6.44921875  0.147017045454545 6.34765625  C 0.0490056818181818 6.24609375  0 6.11631944444444  0 5.95833333333333  L 0 4.875  C 0 4.71701388888889  0.0490056818181818 4.58723958333333  0.147017045454545 4.48567708333333  C 0.245028409090909 4.38411458333333  0.370265151515151 4.33333333333333  0.522727272727273 4.33333333333333  L 5.5703125 4.33333333333333  L 6.71377840909091 1.50651041666667  C 6.87713068181818 1.08897569444444  7.17116477272727 0.733506944444442  7.59588068181818 0.440104166666668  C 8.02059659090909 0.146701388888887  8.45075757575758 0  8.88636363636364 0  L 14.1136363636364 0  C 14.5492424242424 0  14.9794034090909 0.146701388888887  15.4041193181818 0.440104166666668  C 15.8288352272727 0.733506944444442  16.1228693181818 1.08897569444444  16.2862215909091 1.50651041666667  L 17.4296875 4.33333333333333  L 22.4772727272727 4.33333333333333  C 22.6297348484849 4.33333333333333  22.7549715909091 4.38411458333333  22.8529829545455 4.48567708333333  Z " fill-rule="nonzero" fill="#f2f2f2" stroke="none" transform="matrix(1 0 0 1 33 6 )" />
  </g>
</svg>