<?xml version="1.0" encoding="utf-8"?>
<svg version="1.1" xmlns:xlink="http://www.w3.org/1999/xlink" width="334px" height="240px" xmlns="http://www.w3.org/2000/svg">
  <g transform="matrix(1 0 0 1 -618 -140 )">
    <path d="M 618 140  L 952 140  L 952 380  L 618 380  L 618 140  " fill-rule="nonzero" fill="#cccccc" stroke="none" />
    <path d="M 635 157  L 935 157  L 935 363  L 635 363  L 635 157  " fill-rule="nonzero" fill="#ffffff" stroke="none" />
    <path d="M 809.68 212  C 799.6 212  791.68 204.08  791.68 194  C 791.68 183.92  799.6 176  809.68 176  C 819.76 176  827.68 183.92  827.68 194  C 827.68 204.08  819.76 212  809.68 212  " fill-rule="nonzero" fill="#cccccc" stroke="none" />
    <path d="M 641 357  L 641 250.3  L 713 201.8  L 813.8 273.359281437126  L 871.4 230.9  L 929 273.359281437126  L 929 357  L 641 357  " fill-rule="nonzero" fill="#169bd5" stroke="none" />
  </g>
</svg>